<svg xmlns="http://www.w3.org/2000/svg" width="126" height="42" fill="none"><g fill="#94969E" fill-rule="evenodd" clip-path="url(#a)" clip-rule="evenodd"><path d="M14.033 30.277c-6.843-6.061-5.936-15.9.926-20.777 4.82-3.421 12.16-3.843 16.832 1.992 3.31 4.134 3.537 10.08 1.44 13.668-1.315 2.242-4.334 3.9-6.182 1.686-1.68-2.01.195-3.792.852-6.14 2.348-8.413-9.298-14.373-15.433-6.279-3.13 4.13-2.954 10.497 1.565 15.85"/><path d="M35.5 11.922c6.705 6.219 5.57 16.035-1.403 20.749-4.9 3.31-12.243 3.56-16.78-2.375-3.219-4.214-3.307-10.164-1.126-13.702 1.366-2.209 4.422-3.801 6.223-1.542 1.635 2.047-.287 3.788-.995 6.117-2.538 8.363 8.964 14.59 15.285 6.635 3.222-4.056 3.195-10.432-1.2-15.882z"/></g><path fill="#94969E" d="m109.216 31.85 1.904-5.227.037 1.538-4.312-10.591h2.298l3.057 7.836h-.585l2.975-7.836h2.206l-5.511 14.28zm-3.157-4.394a9 9 0 0 1-1.922.156 4.4 4.4 0 0 1-1.676-.339 2.33 2.33 0 0 1-1.126-1.034 3 3 0 0 1-.357-1.31 57 57 0 0 1-.018-1.51v-8.595h2.197v8.467q0 .596.009 1.044.019.448.192.732.33.549 1.053.613a7 7 0 0 0 1.648-.073v1.85ZM99.166 19.3v-1.73h6.893v1.73zm-3.85-3.231v-2.023h2.206v2.023zm0 11.387V17.57h2.206v9.886zm-6.152.274q-1.53 0-2.609-.677a4.5 4.5 0 0 1-1.657-1.867q-.567-1.18-.576-2.673.009-1.52.595-2.691a4.5 4.5 0 0 1 1.684-1.85q1.09-.676 2.59-.677 1.685 0 2.847.852 1.172.842 1.529 2.306l-2.197.596q-.256-.797-.851-1.236a2.2 2.2 0 0 0-1.355-.449q-.86 0-1.419.412-.558.402-.824 1.117-.265.714-.265 1.62 0 1.41.631 2.28.632.87 1.877.869.88 0 1.382-.403.513-.403.77-1.162l2.251.503q-.458 1.51-1.602 2.325-1.144.806-2.801.806Zm-11.244 0q-1.483 0-2.59-.667a4.6 4.6 0 0 1-1.721-1.84q-.604-1.181-.604-2.71 0-1.556.622-2.728a4.6 4.6 0 0 1 1.73-1.83q1.108-.66 2.563-.66 1.492 0 2.6.669a4.6 4.6 0 0 1 1.72 1.849q.615 1.17.614 2.7 0 1.538-.622 2.719a4.6 4.6 0 0 1-1.721 1.84q-1.108.66-2.59.659Zm0-2.068q1.318 0 1.96-.879.64-.878.64-2.27 0-1.436-.65-2.288-.65-.86-1.95-.86-.888 0-1.464.402-.569.394-.843 1.108-.274.705-.274 1.638 0 1.437.65 2.298.66.85 1.931.851m-9.314 1.794V14h2.206v13.456zm-6.702.274q-1.501 0-2.636-.65a4.63 4.63 0 0 1-1.776-1.802q-.632-1.154-.632-2.655 0-1.62.623-2.81.622-1.2 1.73-1.858 1.107-.66 2.563-.66 1.538 0 2.609.724 1.08.714 1.602 2.023.521 1.308.393 3.084h-2.188v-.805q-.009-1.61-.567-2.353-.559-.741-1.758-.741-1.354 0-2.014.842-.659.833-.659 2.444 0 1.5.66 2.325.659.825 1.922.824.815 0 1.4-.357.595-.366.916-1.053l2.178.66a4.4 4.4 0 0 1-1.757 2.077 4.8 4.8 0 0 1-2.61.742Zm-3.405-4.604V21.46H65.3v1.666zm-8.762 4.33-4.155-13.181h2.27l3.478 11.04 3.525-11.04h2.27l-4.156 13.181z"/><defs><clipPath id="a"><path fill="#fff" d="M9.333 7h30.64v28H9.332z"/></clipPath></defs></svg>