<svg xmlns="http://www.w3.org/2000/svg" width="126" height="42" fill="none"><g fill="#94969E" clip-path="url(#a)"><path d="M12.833 29.997V35l17.12-7.652v-5.002zm0-17.994V7l17.12 7.652v5.002z"/><path d="M12.833 19.657v-5.003l17.12 7.652v5.005z"/></g><path fill="#94969E" d="m105.303 31.027 2.067-5.675.04 1.67-4.681-11.5h2.494l3.32 8.508h-.637l3.23-8.507h2.396l-5.983 15.504zm-9.148.298a5.3 5.3 0 0 1-1.72-.278 4.8 4.8 0 0 1-1.47-.805 4.2 4.2 0 0 1-1.073-1.253l2.206-1.093q.307.587.865.865.566.288 1.202.288.745 0 1.332-.268a1.97 1.97 0 0 0 .904-.775q.329-.507.308-1.273v-3.05h.298v-8.16h2.097v11.25q0 .408-.039.775-.03.378-.11.736-.238 1.043-.914 1.71-.675.675-1.68 1.003-.993.328-2.206.328m-.209-4.77q-1.48 0-2.584-.746-1.103-.746-1.709-2.027t-.606-2.892q0-1.63.606-2.902.615-1.283 1.74-2.018 1.123-.745 2.643-.745 1.53 0 2.564.745 1.043.735 1.58 2.018.537 1.281.537 2.902 0 1.599-.537 2.892-.537 1.281-1.6 2.027-1.063.745-2.634.745Zm.368-2.147q.965 0 1.55-.438.597-.447.865-1.242.279-.795.278-1.838 0-1.054-.278-1.839-.268-.795-.845-1.232-.576-.448-1.49-.448-.965 0-1.59.478-.627.466-.925 1.272a5 5 0 0 0-.298 1.769q0 .983.288 1.788.299.795.905 1.263t1.54.467m-12.222 1.848V15.523h2.117v2.614l-.258-.338a3.8 3.8 0 0 1 .527-.974q.337-.447.805-.735.397-.27.874-.418a4 4 0 0 1 .994-.189q.507-.04.984.04v2.236a3.1 3.1 0 0 0-1.103-.09q-.616.051-1.113.348a2.5 2.5 0 0 0-.815.686 2.9 2.9 0 0 0-.457.954q-.15.528-.15 1.143v5.456zm-7.077.299q-1.63 0-2.862-.706a5 5 0 0 1-1.928-1.958q-.686-1.252-.686-2.882 0-1.76.676-3.051a4.94 4.94 0 0 1 1.878-2.018q1.203-.715 2.783-.715 1.67 0 2.832.785 1.173.775 1.74 2.196.566 1.422.427 3.35h-2.376v-.875q-.01-1.75-.616-2.554-.606-.805-1.908-.805-1.471 0-2.186.914-.716.905-.716 2.654 0 1.63.716 2.524.715.894 2.087.894.885 0 1.52-.387.646-.398.994-1.143l2.365.716q-.615 1.45-1.908 2.256a5.2 5.2 0 0 1-2.832.805m-3.697-5v-1.808h7.384v1.808zm-6.027 4.701v-5.168q0-.507-.07-1.123a3.9 3.9 0 0 0-.327-1.182 2.24 2.24 0 0 0-.755-.944q-.498-.368-1.352-.368-.457 0-.904.149-.448.15-.815.517-.358.358-.577.994-.218.626-.218 1.61l-1.422-.607q0-1.371.527-2.484a4.23 4.23 0 0 1 1.57-1.77q1.035-.665 2.545-.665 1.192 0 1.967.397.775.398 1.233 1.014.457.616.676 1.312.218.695.278 1.322.07.616.07 1.003v5.993zm-7.443 0V15.523h2.136v3.33h.289v7.403zm-9.692 4.771 2.067-5.675.04 1.67-4.68-11.5h2.494l3.32 8.508h-.637l3.23-8.507h2.395l-5.983 15.504zm-8.983-4.472q-1.57 0-2.833-.547a5.35 5.35 0 0 1-2.067-1.56q-.805-1.024-1.024-2.425l2.485-.378q.318 1.272 1.302 1.968.994.696 2.286.695.765 0 1.44-.238.677-.24 1.094-.696a1.58 1.58 0 0 0 .427-1.123 1.5 1.5 0 0 0-.099-.546 1.3 1.3 0 0 0-.298-.458 1.9 1.9 0 0 0-.497-.357 3.4 3.4 0 0 0-.696-.289l-3.697-1.093a10 10 0 0 1-1.033-.367 4.5 4.5 0 0 1-1.044-.646 3.3 3.3 0 0 1-.805-1.054q-.308-.645-.308-1.59 0-1.381.696-2.316.705-.945 1.888-1.411 1.192-.467 2.644-.457 1.47.01 2.623.507a5 5 0 0 1 1.928 1.42q.776.936 1.094 2.257l-2.574.447a2.8 2.8 0 0 0-.617-1.282 2.9 2.9 0 0 0-1.103-.815 3.7 3.7 0 0 0-2.713-.08 2.4 2.4 0 0 0-.984.637 1.43 1.43 0 0 0-.368.974q0 .526.318.864.318.329.786.527.477.189.964.318l2.564.716q.526.138 1.182.377.656.24 1.263.666.606.428.993 1.123.398.696.398 1.77 0 1.112-.467 1.957a4.1 4.1 0 0 1-1.242 1.391 5.7 5.7 0 0 1-1.8.835 8 8 0 0 1-2.106.279"/><defs><clipPath id="a"><path fill="#fff" d="M12.833 7h17.121v28h-17.12z"/></clipPath></defs></svg>