<svg xmlns="http://www.w3.org/2000/svg" width="126" height="42" fill="none"><g fill="#94969E" clip-path="url(#a)"><path d="M16.333 20.992c0 3.865 1.61 7.589 4.438 10.241.86-1.456 1.138-3.288.632-5.14-.698-2.566-2.715-4.47-5.07-5.1Z"/><path d="M17.055 16.586a14 14 0 0 0-.667 3.174c3.261.326 6.027 4.08 6.349 8.844a12.7 12.7 0 0 1-.337 3.928q1.101.758 2.373 1.31c.448-2.22.432-4.677-.14-7.156-1.12-4.846-4.082-8.562-7.578-10.104zm15.099-2.327c3.54.796 7.008.27 9.696-1.216a13.7 13.7 0 0 0-1.715-2.037c-2.433 1.958-6.521 2.358-10.433.73-2.04-.848-3.724-2.123-4.917-3.586q-.56.24-1.099.533c1.766 2.645 4.772 4.744 8.468 5.576m12.026 8.817c.114-.765.165-1.535.153-2.296-2.923.922-5.693 3.069-7.557 6.18-1.416 2.366-2.095 4.928-2.091 7.346.33-.106.651-.224.973-.354.29-2.2 1.456-4.72 3.394-6.964 1.558-1.805 3.367-3.14 5.128-3.908z"/><path d="M42.968 14.98c-3.948 1.806-9.986 1.63-15.97-.858-2.284-.95-4.332-2.143-6.078-3.48a13.8 13.8 0 0 0-2.88 3.668c4.52 1.903 8.216 8.895 8.793 17.457q.095 1.43.07 2.81c1.928.49 3.886.549 5.765.227.282-3.94 2.303-8.59 5.854-12.698 1.652-1.91 3.465-3.507 5.32-4.759a14 14 0 0 0-.874-2.366ZM30.773 26.043c-5.627 0-5.62-8.73 0-8.73 5.619 0 5.619 8.73 0 8.73M32.81 11.59c2.236.413 4.492-.219 6.234-1.545a14 14 0 0 0-3.339-1.97 13.93 13.93 0 0 0-8.114-.8c.808 2.17 2.7 3.853 5.218 4.316Zm10.601 14.393c-2.056.326-4.092 1.7-5.39 3.861a8.6 8.6 0 0 0-1.19 3.555 13.94 13.94 0 0 0 6.427-7.024c.055-.129.102-.262.153-.392"/></g><path fill="#94969E" d="m99.626 28.046 3.852-5.326-3.774-5.208h2.77l2.37 3.365 2.331-3.365h2.77l-3.775 5.208 3.873 5.326h-2.77l-2.429-3.482-2.448 3.482zm-5.396.292q-1.599 0-2.808-.692a4.93 4.93 0 0 1-1.892-1.922q-.674-1.229-.674-2.828 0-1.727.664-2.995.663-1.278 1.843-1.98t2.731-.702q1.64 0 2.78.77 1.151.761 1.707 2.156.555 1.395.42 3.287h-2.332v-.858q-.01-1.717-.604-2.507-.595-.79-1.873-.79-1.444 0-2.146.897-.702.888-.702 2.605 0 1.6.702 2.477.702.878 2.048.878.87 0 1.493-.38.634-.39.975-1.122l2.322.702q-.606 1.425-1.873 2.214a5.1 5.1 0 0 1-2.78.79Zm-3.628-4.906v-1.775h7.248v1.775zm-2.892 4.614a9.6 9.6 0 0 1-2.048.166q-.996-.02-1.785-.361a2.47 2.47 0 0 1-1.2-1.103 3.14 3.14 0 0 1-.38-1.394 59 59 0 0 1-.02-1.61v-9.159h2.341v9.023q0 .633.01 1.112.02.477.205.78.351.585 1.121.653.772.069 1.756-.078zm-7.345-8.691V17.51h7.345v1.844zm-6.621 8.691V17.51h2.078v2.566l-.254-.332q.195-.527.517-.956.331-.439.79-.722.39-.263.858-.41.478-.155.976-.185.497-.04.965.04v2.194a3 3 0 0 0-1.082-.088 2.5 2.5 0 0 0-1.093.342q-.487.263-.8.673a2.8 2.8 0 0 0-.448.936 4 4 0 0 0-.147 1.122v5.355h-2.36Zm-7.406.292q-1.581 0-2.76-.712a4.9 4.9 0 0 1-1.835-1.96q-.643-1.258-.643-2.887 0-1.659.663-2.907a4.9 4.9 0 0 1 1.843-1.95q1.18-.703 2.732-.703 1.59 0 2.77.712a4.9 4.9 0 0 1 1.833 1.97q.654 1.25.654 2.878 0 1.638-.663 2.897a4.9 4.9 0 0 1-1.834 1.96q-1.18.702-2.76.702m0-2.204q1.404 0 2.087-.936.683-.937.683-2.42 0-1.53-.693-2.438-.692-.917-2.078-.917-.945 0-1.56.43-.604.419-.898 1.18-.292.75-.292 1.746 0 1.53.692 2.448.703.907 2.059.907M53.51 28.046 49.082 14H51.5l3.706 11.763L58.962 14h2.42l-4.429 14.046z"/><defs><clipPath id="a"><path fill="#fff" d="M16.333 7h28v28h-28z"/></clipPath></defs></svg>