<svg xmlns="http://www.w3.org/2000/svg" width="126" height="42" fill="none"><g fill="#94969E" clip-path="url(#a)"><path d="M24.215 34.923c-.053.04-.131-.009-.133-.075-.182-9.375-7.399-17.62-17.888-18.057-.137-.006-.22-.176-.122-.273q4.661-4.657 9.31-9.326c.177-.177.33-.23.569-.169 8.172 2.107 14.015 6.866 17.021 14.861.377 1 .6 2.06.877 3.099a.5.5 0 0 1-.1.4c-3.175 3.182-6.35 6.365-9.534 9.54"/><path d="M5.972 21c.76-.8 1.522-1.622 2.321-2.414.116-.115.408-.108.6-.07 1.722.324 3.352.939 4.89 1.777 4.674 2.575 7.48 6.52 8.58 11.716.061.292.007.492-.208.715-.738.723-1.453 1.477-2.183 2.222-.016.016-.039.023-.093.054-.161-3.805-1.345-7.188-4.105-9.88-2.745-2.675-6.097-3.928-9.802-4.12"/><path d="M15.636 34.985c-.2-6.328-5.274-9.672-9.803-9.764.123-.13.2-.23.292-.323.63-.615 1.277-1.223 1.892-1.86.253-.27.492-.331.838-.231 4.559 1.284 7.603 4.136 9.08 8.664.23.723.184 1.223-.431 1.722-.661.53-1.238 1.177-1.868 1.792"/><path d="M11.423 34.923c-.193-3.221-2.568-5.297-5.574-5.497.084-.1.153-.184.223-.261.66-.646 1.322-1.284 1.975-1.938.17-.177.316-.2.539-.115 2.567.93 4.243 2.737 5.19 5.259.037.092.022.269-.04.33-.776.754-1.552 1.492-2.313 2.222"/></g><path fill="#94969E" d="M119.609 27.716v-5.752q0-.973-.482-1.517-.482-.552-1.306-.552-.508 0-.912.237-.403.228-.64.684-.237.447-.237 1.07l-.938-.553q-.009-.982.438-1.727a3.2 3.2 0 0 1 1.228-1.175 3.5 3.5 0 0 1 1.718-.421q1.57 0 2.403.947.841.938.841 2.472v6.287zm-11.389 0v-9.47h1.868v2.938h.263v6.532zm5.708 0V21.99q0-.99-.482-1.543-.483-.552-1.316-.552-.806 0-1.297.552-.482.553-.482 1.438l-.947-.631q0-.92.456-1.657a3.25 3.25 0 0 1 1.227-1.158 3.56 3.56 0 0 1 1.745-.43q1.061 0 1.771.457.719.447 1.07 1.227.359.772.359 1.745v6.278zm-13.116.272q-1.052 0-1.736-.351a3.1 3.1 0 0 1-1.088-.894 3.9 3.9 0 0 1-.596-1.158 6 6 0 0 1-.254-1.157 10 10 0 0 1-.053-.894v-5.287h2.14v4.559q0 .438.06.99a3.7 3.7 0 0 0 .282 1.053q.228.5.666.824.447.324 1.201.324.404 0 .798-.131.395-.132.71-.447.325-.325.517-.886.193-.56.193-1.42l1.254.535q0 1.21-.473 2.192a3.73 3.73 0 0 1-1.377 1.569q-.912.579-2.244.579m3.095-.272v-2.937h-.255v-6.532h2.122v9.469zm-13.65 0v-9.47h1.867v2.306l-.228-.298q.175-.473.465-.859.297-.395.71-.649a3 3 0 0 1 .772-.368 3.5 3.5 0 0 1 .876-.166q.448-.036.868.035v1.972a2.7 2.7 0 0 0-.973-.079 2.2 2.2 0 0 0-.982.307q-.438.237-.719.605a2.6 2.6 0 0 0-.403.842 3.7 3.7 0 0 0-.132 1.008v4.814zm-2.037 0a8.6 8.6 0 0 1-1.84.149 4.2 4.2 0 0 1-1.605-.324 2.22 2.22 0 0 1-1.079-.991 2.8 2.8 0 0 1-.342-1.254 54 54 0 0 1-.017-1.447v-8.233h2.104v8.11q0 .57.009 1 .017.43.184.701.315.526 1.008.588.693.06 1.578-.07zm-6.602-7.812v-1.657h6.602v1.657zm-4.922 8.075q-1.465 0-2.499-.649a4.3 4.3 0 0 1-1.587-1.788q-.543-1.132-.552-2.56.007-1.456.57-2.578a4.3 4.3 0 0 1 1.613-1.771q1.043-.65 2.481-.65 1.614 0 2.727.816 1.122.806 1.464 2.21l-2.104.57q-.245-.764-.816-1.184a2.1 2.1 0 0 0-1.297-.43q-.825 0-1.36.395a2.24 2.24 0 0 0-.788 1.07 4.4 4.4 0 0 0-.255 1.551q0 1.35.605 2.183.606.833 1.798.833.841 0 1.324-.385.491-.386.736-1.114l2.157.482q-.438 1.447-1.534 2.227-1.096.772-2.683.772m-10.356 0q-1.438 0-2.525-.622a4.43 4.43 0 0 1-1.701-1.728q-.605-1.104-.605-2.543 0-1.551.596-2.691a4.36 4.36 0 0 1 1.657-1.78q1.061-.63 2.455-.631 1.473 0 2.499.692 1.035.684 1.534 1.938.501 1.253.377 2.955h-2.095v-.772q-.009-1.544-.544-2.253-.534-.71-1.683-.71-1.297 0-1.93.806-.63.798-.63 2.341 0 1.438.63 2.227.633.79 1.842.79.78 0 1.342-.343.57-.35.877-1.008l2.086.632a4.23 4.23 0 0 1-1.683 1.99 4.6 4.6 0 0 1-2.5.71Zm-3.262-4.41v-1.596h6.515v1.596zm-7.298 4.41q-1.386 0-2.324-.658-.938-.657-1.411-1.788-.474-1.14-.474-2.552 0-1.429.474-2.56.473-1.13 1.385-1.78.92-.657 2.27-.657 1.343 0 2.324.657a4.3 4.3 0 0 1 1.535 1.78q.543 1.123.543 2.56 0 1.42-.534 2.552-.535 1.131-1.509 1.788-.972.658-2.28.658Zm-4.568 3.946V18.247h1.867v6.646h.263v7.032zm4.243-5.84q.825 0 1.36-.412a2.4 2.4 0 0 0 .788-1.113q.264-.71.264-1.579 0-.86-.264-1.56a2.4 2.4 0 0 0-.815-1.123q-.552-.42-1.403-.42-.807 0-1.315.394-.508.386-.754 1.087-.237.693-.237 1.622 0 .921.237 1.622.246.702.763 1.096.526.387 1.376.386m-11.078 1.894q-1.385 0-2.498-.482a4.7 4.7 0 0 1-1.824-1.377q-.71-.903-.903-2.14l2.192-.332q.28 1.122 1.148 1.736.877.613 2.017.613.675 0 1.271-.21.597-.21.965-.614.377-.403.377-.99 0-.264-.088-.483a1.15 1.15 0 0 0-.263-.403 1.6 1.6 0 0 0-.438-.316q-.264-.15-.614-.254l-3.262-.965a9 9 0 0 1-.912-.324 4 4 0 0 1-.92-.57 2.9 2.9 0 0 1-.71-.93q-.272-.57-.272-1.402 0-1.22.614-2.043.622-.832 1.666-1.245 1.05-.413 2.332-.403 1.297.008 2.314.447a4.4 4.4 0 0 1 1.701 1.254q.684.825.965 1.99l-2.271.394a2.47 2.47 0 0 0-.544-1.13 2.54 2.54 0 0 0-.973-.72 3.28 3.28 0 0 0-2.393-.07 2.1 2.1 0 0 0-.869.561 1.26 1.26 0 0 0-.324.86q0 .465.28.762.282.29.693.465.42.167.85.28l2.263.632q.465.123 1.043.333.579.21 1.114.588.535.377.877.99.35.615.35 1.561 0 .982-.412 1.727-.403.736-1.096 1.228a5 5 0 0 1-1.587.736 7 7 0 0 1-1.858.246Z"/><defs><clipPath id="a"><path fill="#fff" d="M5.833 7h28.023v28H5.833z"/></clipPath></defs></svg>